<?xml version="1.0" standalone="no"?><!DOCTYPE svg PUBLIC "-//W3C//DTD SVG 1.1//EN" "http://www.w3.org/Graphics/SVG/1.1/DTD/svg11.dtd"><svg t="1511948095167" class="icon" style="" viewBox="0 0 1140 1024" version="1.1" xmlns="http://www.w3.org/2000/svg" p-id="1193" xmlns:xlink="http://www.w3.org/1999/xlink" width="222.65625" height="200"><defs><style type="text/css"></style></defs><path d="M992.771631 31.228369l-130.723404 98.042553H355.858156L236.028369 34.133333C164.856738-21.787234 96.590071 10.893617 96.590071 101.673759v304.295035C39.217021 437.923404 0.726241 498.92766 0.726241 568.646809s38.49078 130.723404 95.86383 162.678014V1016.737589h47.931915v-267.256738c13.07234 2.904965 26.144681 4.357447 39.943262 4.357447 91.506383 0 167.761702-67.540426 181.560284-156.141844h0.726241c5.083688-1.452482 10.167376-3.631206 15.251064-5.083688 7.988652-2.178723 15.977305-4.357447 23.239716-5.809929 5.809929-0.726241 10.893617-1.452482 15.251064-1.452482 9.441135 0 20.334752 2.178723 31.95461 6.53617 4.357447 1.452482 7.988652 2.904965 11.619858 4.357447 2.178723 0.726241 2.904965 1.452482 3.631206 2.178723l15.251064 8.714894c17.429787 84.243972 91.506383 147.42695 180.107801 147.42695 101.673759 0 183.739007-82.791489 183.739007-185.191489s-82.065248-185.191489-183.739007-185.19149c-95.137589 0-173.571631 73.350355-183.012766 166.30922-2.904965-1.452482-6.53617-2.904965-10.893617-4.357447-15.977305-5.809929-32.680851-9.441135-48.658156-9.441134-7.262411 0-15.251064 0.726241-23.239716 2.178723-9.441135 1.452482-18.88227 3.631206-29.049646 6.53617-0.726241 0-1.452482 0.726241-2.178723 0.726241-10.167376-91.506383-87.875177-162.678014-181.560284-162.678014-13.798582 0-26.870922 1.452482-39.943262 4.357447V101.673759c0-50.836879 21.787234-61.004255 61.730496-29.775887l132.902128 105.304965H878.751773l143.069504-107.483688c40.669504-30.502128 63.90922-18.88227 63.909219 31.95461v370.382979h-95.863829c-13.07234 0-23.965957 10.893617-23.965958 23.965957s10.893617 23.965957 23.965958 23.965957h95.863829v64.635461h-95.863829c-13.07234 0-23.965957 10.893617-23.965958 23.965958s10.893617 23.965957 23.965958 23.965957h95.863829V697.191489h-95.863829c-13.07234 0-23.965957 10.893617-23.965958 23.965958s10.893617 23.965957 23.965958 23.965957h95.863829v273.792908h47.931915V101.673759c0.726241-90.780142-68.266667-124.913475-140.89078-70.44539zM663.058156 432.113475c74.802837 0 135.807092 61.004255 135.807092 136.533334s-61.004255 136.533333-135.807092 136.533333-135.807092-61.004255-135.807092-136.533333c0.726241-75.529078 61.004255-136.533333 135.807092-136.533334zM320.27234 568.646809c0 75.529078-61.004255 136.533333-135.807092 136.533333S48.658156 644.175887 48.658156 568.646809s61.004255-136.533333 135.807092-136.533334 135.807092 61.004255 135.807092 136.533334z" fill="#333333" p-id="1194"></path><path d="M447.364539 761.82695h-63.90922c-13.07234 0-23.965957 10.893617-23.965957 23.965958 0 13.07234 10.893617 23.965957 23.965957 23.965957h63.90922c13.07234 0 23.965957-10.893617 23.965957-23.965957 0.726241-13.07234-10.167376-23.965957-23.965957-23.965958z" fill="#333333" p-id="1195"></path></svg>